<?xml version="1.0" encoding="utf-8" standalone="no"?>
<!DOCTYPE svg PUBLIC "-//W3C//DTD SVG 1.1//EN"
  "http://www.w3.org/Graphics/SVG/1.1/DTD/svg11.dtd">
<svg xmlns:xlink="http://www.w3.org/1999/xlink" width="864pt" height="576pt" viewBox="0 0 864 576" xmlns="http://www.w3.org/2000/svg" version="1.1">
 <metadata>
  <rdf:RDF xmlns:dc="http://purl.org/dc/elements/1.1/" xmlns:cc="http://creativecommons.org/ns#" xmlns:rdf="http://www.w3.org/1999/02/22-rdf-syntax-ns#">
   <cc:Work>
    <dc:type rdf:resource="http://purl.org/dc/dcmitype/StillImage"/>
    <dc:date>2023-12-22T17:32:39.048212</dc:date>
    <dc:format>image/svg+xml</dc:format>
    <dc:creator>
     <cc:Agent>
      <dc:title>Matplotlib v3.8.2, https://matplotlib.org/</dc:title>
     </cc:Agent>
    </dc:creator>
   </cc:Work>
  </rdf:RDF>
 </metadata>
 <defs>
  <style type="text/css">*{stroke-linejoin: round; stroke-linecap: butt}</style>
 </defs>
 <g id="figure_1">
  <g id="patch_1">
   <path d="M 0 576 
L 864 576 
L 864 0 
L 0 0 
z
" style="fill: #ffffff"/>
  </g>
  <g id="axes_1">
   <g id="LineCollection_1">
    <path d="M 433.362012 289.652427 
L 433.362012 289.652427 
" clip-path="url(#pb999316450)" style="fill: none; stroke: #000000; stroke-width: 2"/>
    <path d="M 433.362012 289.652427 
L 789.024793 239.52049 
" clip-path="url(#pb999316450)" style="fill: none; stroke: #000000; stroke-width: 2"/>
    <path d="M 433.362012 289.652427 
L 89.659726 357.616315 
" clip-path="url(#pb999316450)" style="fill: none; stroke: #000000; stroke-width: 2"/>
    <path d="M 433.362012 289.652427 
L 330.055157 437.142523 
" clip-path="url(#pb999316450)" style="fill: none; stroke: #000000; stroke-width: 2"/>
    <path d="M 433.362012 289.652427 
L 447.288275 105.839565 
" clip-path="url(#pb999316450)" style="fill: none; stroke: #000000; stroke-width: 2"/>
    <path d="M 433.362012 289.652427 
L 665.945143 474.702946 
" clip-path="url(#pb999316450)" style="fill: none; stroke: #000000; stroke-width: 2"/>
    <path d="M 433.362012 289.652427 
L 269.641693 106.682165 
" clip-path="url(#pb999316450)" style="fill: none; stroke: #000000; stroke-width: 2"/>
    <path d="M 433.362012 289.652427 
L 448.796445 448.486637 
" clip-path="url(#pb999316450)" style="fill: none; stroke: #000000; stroke-width: 2"/>
    <path d="M 433.362012 289.652427 
L 531.617908 515.818762 
" clip-path="url(#pb999316450)" style="fill: none; stroke: #000000; stroke-width: 2"/>
    <path d="M 433.362012 289.652427 
L 787.645577 335.592352 
" clip-path="url(#pb999316450)" style="fill: none; stroke: #000000; stroke-width: 2"/>
    <path d="M 433.362012 289.652427 
L 573.170241 434.471384 
" clip-path="url(#pb999316450)" style="fill: none; stroke: #000000; stroke-width: 2"/>
    <path d="M 433.362012 289.652427 
L 194.459143 306.69108 
" clip-path="url(#pb999316450)" style="fill: none; stroke: #000000; stroke-width: 2"/>
    <path d="M 433.362012 289.652427 
L 622.033776 88.787427 
" clip-path="url(#pb999316450)" style="fill: none; stroke: #000000; stroke-width: 2"/>
    <path d="M 433.362012 289.652427 
L 151.143822 437.391536 
" clip-path="url(#pb999316450)" style="fill: none; stroke: #000000; stroke-width: 2"/>
    <path d="M 433.362012 289.652427 
L 499.861059 49.983471 
" clip-path="url(#pb999316450)" style="fill: none; stroke: #000000; stroke-width: 2"/>
    <path d="M 433.362012 289.652427 
L 565.367978 156.917521 
" clip-path="url(#pb999316450)" style="fill: none; stroke: #000000; stroke-width: 2"/>
    <path d="M 433.362012 289.652427 
L 695.156498 287.487679 
" clip-path="url(#pb999316450)" style="fill: none; stroke: #000000; stroke-width: 2"/>
    <path d="M 433.362012 289.652427 
L 361.907893 174.143771 
" clip-path="url(#pb999316450)" style="fill: none; stroke: #000000; stroke-width: 2"/>
    <path d="M 433.362012 289.652427 
L 74.975207 271.556314 
" clip-path="url(#pb999316450)" style="fill: none; stroke: #000000; stroke-width: 2"/>
    <path d="M 433.362012 289.652427 
L 258.61549 495.480915 
" clip-path="url(#pb999316450)" style="fill: none; stroke: #000000; stroke-width: 2"/>
    <path d="M 433.362012 289.652427 
L 232.367641 386.844808 
" clip-path="url(#pb999316450)" style="fill: none; stroke: #000000; stroke-width: 2"/>
    <path d="M 433.362012 289.652427 
L 172.857278 130.4868 
" clip-path="url(#pb999316450)" style="fill: none; stroke: #000000; stroke-width: 2"/>
    <path d="M 433.362012 289.652427 
L 345.275869 54.275501 
" clip-path="url(#pb999316450)" style="fill: none; stroke: #000000; stroke-width: 2"/>
    <path d="M 433.362012 289.652427 
L 101.147499 194.076769 
" clip-path="url(#pb999316450)" style="fill: none; stroke: #000000; stroke-width: 2"/>
    <path d="M 433.362012 289.652427 
L 393.347218 526.016529 
" clip-path="url(#pb999316450)" style="fill: none; stroke: #000000; stroke-width: 2"/>
    <path d="M 433.362012 289.652427 
L 614.570861 355.197803 
" clip-path="url(#pb999316450)" style="fill: none; stroke: #000000; stroke-width: 2"/>
    <path d="M 433.362012 289.652427 
L 734.013825 405.983417 
" clip-path="url(#pb999316450)" style="fill: none; stroke: #000000; stroke-width: 2"/>
    <path d="M 433.362012 289.652427 
L 669.648313 206.111356 
" clip-path="url(#pb999316450)" style="fill: none; stroke: #000000; stroke-width: 2"/>
    <path d="M 433.362012 289.652427 
L 219.139732 218.384984 
" clip-path="url(#pb999316450)" style="fill: none; stroke: #000000; stroke-width: 2"/>
    <path d="M 433.362012 289.652427 
L 724.474675 145.54545 
" clip-path="url(#pb999316450)" style="fill: none; stroke: #000000; stroke-width: 2"/>
   </g>
   <g id="patch_2">
    <path d="M 433.362012 242.049121 
C 469.62058 242.049121 469.62058 289.652427 433.362012 289.652427 
C 397.103443 289.652427 397.103443 242.049121 433.362012 242.049121 
" clip-path="url(#pb999316450)" style="fill: none; stroke: #000000; stroke-width: 2; stroke-linecap: round"/>
   </g>
   <g id="PathCollection_1">
    <path d="M 433.362012 354.459834 
C 450.549137 354.459834 467.034636 347.631317 479.187769 335.478184 
C 491.340902 323.325051 498.169419 306.839553 498.169419 289.652427 
C 498.169419 272.465302 491.340902 255.979803 479.187769 243.82667 
C 467.034636 231.673538 450.549137 224.84502 433.362012 224.84502 
C 416.174887 224.84502 399.689388 231.673538 387.536255 243.82667 
C 375.383122 255.979803 368.554605 272.465302 368.554605 289.652427 
C 368.554605 306.839553 375.383122 323.325051 387.536255 335.478184 
C 399.689388 347.631317 416.174887 354.459834 433.362012 354.459834 
z
" clip-path="url(#pb999316450)" style="fill: #add8e6; stroke: #add8e6"/>
    <path d="M 789.024793 279.206759 
C 799.549715 279.206759 809.64498 275.025164 817.087224 267.58292 
C 824.529467 260.140677 828.711063 250.045411 828.711063 239.52049 
C 828.711063 228.995568 824.529467 218.900303 817.087224 211.458059 
C 809.64498 204.015816 799.549715 199.83422 789.024793 199.83422 
C 778.499872 199.83422 768.404607 204.015816 760.962363 211.458059 
C 753.520119 218.900303 749.338524 228.995568 749.338524 239.52049 
C 749.338524 250.045411 753.520119 260.140677 760.962363 267.58292 
C 768.404607 275.025164 778.499872 279.206759 789.024793 279.206759 
z
" clip-path="url(#pb999316450)" style="fill: #add8e6; stroke: #add8e6"/>
    <path d="M 89.659726 395.365487 
C 99.670924 395.365487 109.273436 391.387996 116.352422 384.30901 
C 123.431408 377.230025 127.408899 367.627512 127.408899 357.616315 
C 127.408899 347.605117 123.431408 338.002605 116.352422 330.923619 
C 109.273436 323.844634 99.670924 319.867143 89.659726 319.867143 
C 79.648529 319.867143 70.046016 323.844634 62.967031 330.923619 
C 55.888045 338.002605 51.910554 347.605117 51.910554 357.616315 
C 51.910554 367.627512 55.888045 377.230025 62.967031 384.30901 
C 70.046016 391.387996 79.648529 395.365487 89.659726 395.365487 
z
" clip-path="url(#pb999316450)" style="fill: #add8e6; stroke: #add8e6"/>
    <path d="M 330.055157 469.546226 
C 338.648719 469.546226 346.891469 466.131967 352.968035 460.055401 
C 359.044602 453.978835 362.45886 445.736085 362.45886 437.142523 
C 362.45886 428.54896 359.044602 420.30621 352.968035 414.229644 
C 346.891469 408.153078 338.648719 404.738819 330.055157 404.738819 
C 321.461594 404.738819 313.218845 408.153078 307.142278 414.229644 
C 301.065712 420.30621 297.651453 428.54896 297.651453 437.142523 
C 297.651453 445.736085 301.065712 453.978835 307.142278 460.055401 
C 313.218845 466.131967 321.461594 469.546226 330.055157 469.546226 
z
" clip-path="url(#pb999316450)" style="fill: #add8e6; stroke: #add8e6"/>
    <path d="M 447.288275 135.419964 
C 455.133089 135.419964 462.657655 132.303186 468.204776 126.756065 
C 473.751897 121.208945 476.868674 113.684378 476.868674 105.839565 
C 476.868674 97.994751 473.751897 90.470185 468.204776 84.923064 
C 462.657655 79.375943 455.133089 76.259166 447.288275 76.259166 
C 439.443462 76.259166 431.918895 79.375943 426.371774 84.923064 
C 420.824654 90.470185 417.707876 97.994751 417.707876 105.839565 
C 417.707876 113.684378 420.824654 121.208945 426.371774 126.756065 
C 431.918895 132.303186 439.443462 135.419964 447.288275 135.419964 
z
" clip-path="url(#pb999316450)" style="fill: #add8e6; stroke: #add8e6"/>
    <path d="M 665.945143 503.425759 
C 673.562523 503.425759 680.868939 500.399342 686.255239 495.013042 
C 691.64154 489.626741 694.667957 482.320325 694.667957 474.702946 
C 694.667957 467.085567 691.64154 459.77915 686.255239 454.39285 
C 680.868939 449.006549 673.562523 445.980132 665.945143 445.980132 
C 658.327764 445.980132 651.021348 449.006549 645.635047 454.39285 
C 640.248747 459.77915 637.22233 467.085567 637.22233 474.702946 
C 637.22233 482.320325 640.248747 489.626741 645.635047 495.013042 
C 651.021348 500.399342 658.327764 503.425759 665.945143 503.425759 
z
" clip-path="url(#pb999316450)" style="fill: #add8e6; stroke: #add8e6"/>
    <path d="M 269.641693 134.966436 
C 277.14277 134.966436 284.337631 131.986227 289.641693 126.682165 
C 294.945755 121.378103 297.925965 114.183241 297.925965 106.682165 
C 297.925965 99.181088 294.945755 91.986227 289.641693 86.682165 
C 284.337631 81.378103 277.14277 78.397893 269.641693 78.397893 
C 262.140617 78.397893 254.945755 81.378103 249.641693 86.682165 
C 244.337631 91.986227 241.357422 99.181088 241.357422 106.682165 
C 241.357422 114.183241 244.337631 121.378103 249.641693 126.682165 
C 254.945755 131.986227 262.140617 134.966436 269.641693 134.966436 
z
" clip-path="url(#pb999316450)" style="fill: #add8e6; stroke: #add8e6"/>
    <path d="M 448.796445 476.770908 
C 456.297521 476.770908 463.492383 473.790699 468.796445 468.486637 
C 474.100507 463.182575 477.080716 455.987713 477.080716 448.486637 
C 477.080716 440.98556 474.100507 433.790699 468.796445 428.486637 
C 463.492383 423.182575 456.297521 420.202365 448.796445 420.202365 
C 441.295368 420.202365 434.100507 423.182575 428.796445 428.486637 
C 423.492383 433.790699 420.512174 440.98556 420.512174 448.486637 
C 420.512174 455.987713 423.492383 463.182575 428.796445 468.486637 
C 434.100507 473.790699 441.295368 476.770908 448.796445 476.770908 
z
" clip-path="url(#pb999316450)" style="fill: #add8e6; stroke: #add8e6"/>
    <path d="M 531.617908 544.103033 
C 539.118985 544.103033 546.313846 541.122824 551.617908 535.818762 
C 556.92197 530.5147 559.90218 523.319838 559.90218 515.818762 
C 559.90218 508.317685 556.92197 501.122824 551.617908 495.818762 
C 546.313846 490.5147 539.118985 487.53449 531.617908 487.53449 
C 524.116832 487.53449 516.92197 490.5147 511.617908 495.818762 
C 506.313846 501.122824 503.333637 508.317685 503.333637 515.818762 
C 503.333637 523.319838 506.313846 530.5147 511.617908 535.818762 
C 516.92197 541.122824 524.116832 544.103033 531.617908 544.103033 
z
" clip-path="url(#pb999316450)" style="fill: #add8e6; stroke: #add8e6"/>
    <path d="M 787.645577 362.978479 
C 794.908463 362.978479 801.874858 360.092904 807.010494 354.957268 
C 812.14613 349.821632 815.031705 342.855238 815.031705 335.592352 
C 815.031705 328.329466 812.14613 321.363071 807.010494 316.227435 
C 801.874858 311.091799 794.908463 308.206224 787.645577 308.206224 
C 780.382691 308.206224 773.416296 311.091799 768.280661 316.227435 
C 763.145025 321.363071 760.259449 328.329466 760.259449 335.592352 
C 760.259449 342.855238 763.145025 349.821632 768.280661 354.957268 
C 773.416296 360.092904 780.382691 362.978479 787.645577 362.978479 
z
" clip-path="url(#pb999316450)" style="fill: #add8e6; stroke: #add8e6"/>
    <path d="M 573.170241 461.397208 
C 580.311053 461.397208 587.160357 458.560133 592.209674 453.510817 
C 597.258991 448.4615 600.096065 441.612196 600.096065 434.471384 
C 600.096065 427.330572 597.258991 420.481268 592.209674 415.431951 
C 587.160357 410.382635 580.311053 407.54556 573.170241 407.54556 
C 566.029429 407.54556 559.180125 410.382635 554.130809 415.431951 
C 549.081492 420.481268 546.244417 427.330572 546.244417 434.471384 
C 546.244417 441.612196 549.081492 448.4615 554.130809 453.510817 
C 559.180125 458.560133 566.029429 461.397208 573.170241 461.397208 
z
" clip-path="url(#pb999316450)" style="fill: #add8e6; stroke: #add8e6"/>
    <path d="M 194.459143 333.616904 
C 201.599955 333.616904 208.449259 330.779829 213.498576 325.730512 
C 218.547893 320.681196 221.384967 313.831892 221.384967 306.69108 
C 221.384967 299.550268 218.547893 292.700964 213.498576 287.651647 
C 208.449259 282.60233 201.599955 279.765256 194.459143 279.765256 
C 187.318331 279.765256 180.469027 282.60233 175.419711 287.651647 
C 170.370394 292.700964 167.533319 299.550268 167.533319 306.69108 
C 167.533319 313.831892 170.370394 320.681196 175.419711 325.730512 
C 180.469027 330.779829 187.318331 333.616904 194.459143 333.616904 
z
" clip-path="url(#pb999316450)" style="fill: #add8e6; stroke: #add8e6"/>
    <path d="M 622.033776 115.713251 
C 629.174588 115.713251 636.023892 112.876176 641.073209 107.82686 
C 646.122525 102.777543 648.9596 95.928239 648.9596 88.787427 
C 648.9596 81.646615 646.122525 74.797311 641.073209 69.747994 
C 636.023892 64.698678 629.174588 61.861603 622.033776 61.861603 
C 614.892964 61.861603 608.04366 64.698678 602.994343 69.747994 
C 597.945026 74.797311 595.107952 81.646615 595.107952 88.787427 
C 595.107952 95.928239 597.945026 102.777543 602.994343 107.82686 
C 608.04366 112.876176 614.892964 115.713251 622.033776 115.713251 
z
" clip-path="url(#pb999316450)" style="fill: #add8e6; stroke: #add8e6"/>
    <path d="M 151.143822 464.31736 
C 158.284634 464.31736 165.133939 461.480285 170.183255 456.430969 
C 175.232572 451.381652 178.069646 444.532348 178.069646 437.391536 
C 178.069646 430.250724 175.232572 423.40142 170.183255 418.352103 
C 165.133939 413.302787 158.284634 410.465712 151.143822 410.465712 
C 144.00301 410.465712 137.153706 413.302787 132.10439 418.352103 
C 127.055073 423.40142 124.217998 430.250724 124.217998 437.391536 
C 124.217998 444.532348 127.055073 451.381652 132.10439 456.430969 
C 137.153706 461.480285 144.00301 464.31736 151.143822 464.31736 
z
" clip-path="url(#pb999316450)" style="fill: #add8e6; stroke: #add8e6"/>
    <path d="M 499.861059 76.440984 
C 506.877674 76.440984 513.607851 73.653254 518.569346 68.691758 
C 523.530842 63.730262 526.318572 57.000086 526.318572 49.983471 
C 526.318572 42.966857 523.530842 36.23668 518.569346 31.275184 
C 513.607851 26.313688 506.877674 23.525958 499.861059 23.525958 
C 492.844445 23.525958 486.114268 26.313688 481.152772 31.275184 
C 476.191277 36.23668 473.403546 42.966857 473.403546 49.983471 
C 473.403546 57.000086 476.191277 63.730262 481.152772 68.691758 
C 486.114268 73.653254 492.844445 76.440984 499.861059 76.440984 
z
" clip-path="url(#pb999316450)" style="fill: #add8e6; stroke: #add8e6"/>
    <path d="M 565.367978 183.375034 
C 572.384593 183.375034 579.11477 180.587304 584.076265 175.625808 
C 589.037761 170.664312 591.825491 163.934136 591.825491 156.917521 
C 591.825491 149.900907 589.037761 143.17073 584.076265 138.209234 
C 579.11477 133.247738 572.384593 130.460008 565.367978 130.460008 
C 558.351364 130.460008 551.621187 133.247738 546.659691 138.209234 
C 541.698196 143.17073 538.910465 149.900907 538.910465 156.917521 
C 538.910465 163.934136 541.698196 170.664312 546.659691 175.625808 
C 551.621187 180.587304 558.351364 183.375034 565.367978 183.375034 
z
" clip-path="url(#pb999316450)" style="fill: #add8e6; stroke: #add8e6"/>
    <path d="M 695.156498 313.468441 
C 702.046677 313.468441 708.655579 310.730944 713.527671 305.858852 
C 718.399763 300.98676 721.13726 294.377858 721.13726 287.487679 
C 721.13726 280.5975 718.399763 273.988598 713.527671 269.116506 
C 708.655579 264.244414 702.046677 261.506917 695.156498 261.506917 
C 688.266319 261.506917 681.657417 264.244414 676.785325 269.116506 
C 671.913233 273.988598 669.175736 280.5975 669.175736 287.487679 
C 669.175736 294.377858 671.913233 300.98676 676.785325 305.858852 
C 681.657417 310.730944 688.266319 313.468441 695.156498 313.468441 
z
" clip-path="url(#pb999316450)" style="fill: #add8e6; stroke: #add8e6"/>
    <path d="M 361.907893 200.124533 
C 368.798072 200.124533 375.406974 197.387036 380.279066 192.514944 
C 385.151158 187.642852 387.888655 181.033949 387.888655 174.143771 
C 387.888655 167.253592 385.151158 160.64469 380.279066 155.772597 
C 375.406974 150.900505 368.798072 148.163008 361.907893 148.163008 
C 355.017715 148.163008 348.408812 150.900505 343.53672 155.772597 
C 338.664628 160.64469 335.927131 167.253592 335.927131 174.143771 
C 335.927131 181.033949 338.664628 187.642852 343.53672 192.514944 
C 348.408812 197.387036 355.017715 200.124533 361.907893 200.124533 
z
" clip-path="url(#pb999316450)" style="fill: #add8e6; stroke: #add8e6"/>
    <path d="M 74.975207 297.051412 
C 81.736586 297.051412 88.221946 294.365088 93.002963 289.584071 
C 97.78398 284.803054 100.470304 278.317693 100.470304 271.556314 
C 100.470304 264.794936 97.78398 258.309575 93.002963 253.528558 
C 88.221946 248.747541 81.736586 246.061217 74.975207 246.061217 
C 68.213828 246.061217 61.728467 248.747541 56.94745 253.528558 
C 52.166433 258.309575 49.480109 264.794936 49.480109 271.556314 
C 49.480109 278.317693 52.166433 284.803054 56.94745 289.584071 
C 61.728467 294.365088 68.213828 297.051412 74.975207 297.051412 
z
" clip-path="url(#pb999316450)" style="fill: #add8e6; stroke: #add8e6"/>
    <path d="M 258.61549 520.976012 
C 265.376869 520.976012 271.862229 518.289688 276.643246 513.508671 
C 281.424263 508.727654 284.110587 502.242294 284.110587 495.480915 
C 284.110587 488.719536 281.424263 482.234175 276.643246 477.453159 
C 271.862229 472.672142 265.376869 469.985817 258.61549 469.985817 
C 251.854111 469.985817 245.36875 472.672142 240.587733 477.453159 
C 235.806716 482.234175 233.120392 488.719536 233.120392 495.480915 
C 233.120392 502.242294 235.806716 508.727654 240.587733 513.508671 
C 245.36875 518.289688 251.854111 520.976012 258.61549 520.976012 
z
" clip-path="url(#pb999316450)" style="fill: #add8e6; stroke: #add8e6"/>
    <path d="M 232.367641 412.339906 
C 239.12902 412.339906 245.614381 409.653581 250.395397 404.872564 
C 255.176414 400.091547 257.862739 393.606187 257.862739 386.844808 
C 257.862739 380.083429 255.176414 373.598068 250.395397 368.817052 
C 245.614381 364.036035 239.12902 361.34971 232.367641 361.34971 
C 225.606262 361.34971 219.120902 364.036035 214.339885 368.817052 
C 209.558868 373.598068 206.872544 380.083429 206.872544 386.844808 
C 206.872544 393.606187 209.558868 400.091547 214.339885 404.872564 
C 219.120902 409.653581 225.606262 412.339906 232.367641 412.339906 
z
" clip-path="url(#pb999316450)" style="fill: #add8e6; stroke: #add8e6"/>
    <path d="M 172.857278 155.4868 
C 179.487356 155.4868 185.846775 152.852642 190.534948 148.164469 
C 195.223121 143.476296 197.857278 137.116877 197.857278 130.4868 
C 197.857278 123.856722 195.223121 117.497303 190.534948 112.80913 
C 185.846775 108.120957 179.487356 105.4868 172.857278 105.4868 
C 166.227201 105.4868 159.867782 108.120957 155.179609 112.80913 
C 150.491436 117.497303 147.857278 123.856722 147.857278 130.4868 
C 147.857278 137.116877 150.491436 143.476296 155.179609 148.164469 
C 159.867782 152.852642 166.227201 155.4868 172.857278 155.4868 
z
" clip-path="url(#pb999316450)" style="fill: #add8e6; stroke: #add8e6"/>
    <path d="M 345.275869 79.275501 
C 351.905947 79.275501 358.265366 76.641343 362.953539 71.95317 
C 367.641712 67.264998 370.275869 60.905578 370.275869 54.275501 
C 370.275869 47.645423 367.641712 41.286004 362.953539 36.597831 
C 358.265366 31.909659 351.905947 29.275501 345.275869 29.275501 
C 338.645792 29.275501 332.286373 31.909659 327.5982 36.597831 
C 322.910027 41.286004 320.275869 47.645423 320.275869 54.275501 
C 320.275869 60.905578 322.910027 67.264998 327.5982 71.95317 
C 332.286373 76.641343 338.645792 79.275501 345.275869 79.275501 
z
" clip-path="url(#pb999316450)" style="fill: #add8e6; stroke: #add8e6"/>
    <path d="M 101.147499 219.076769 
C 107.777577 219.076769 114.136996 216.442612 118.825169 211.754439 
C 123.513342 207.066266 126.147499 200.706847 126.147499 194.076769 
C 126.147499 187.446692 123.513342 181.087273 118.825169 176.3991 
C 114.136996 171.710927 107.777577 169.076769 101.147499 169.076769 
C 94.517422 169.076769 88.158003 171.710927 83.46983 176.3991 
C 78.781657 181.087273 76.147499 187.446692 76.147499 194.076769 
C 76.147499 200.706847 78.781657 207.066266 83.46983 211.754439 
C 88.158003 216.442612 94.517422 219.076769 101.147499 219.076769 
z
" clip-path="url(#pb999316450)" style="fill: #add8e6; stroke: #add8e6"/>
    <path d="M 393.347218 550.511426 
C 399.843341 550.511426 406.074274 547.930489 410.667726 543.337037 
C 415.261179 538.743585 417.842115 532.512652 417.842115 526.016529 
C 417.842115 519.520406 415.261179 513.289473 410.667726 508.696021 
C 406.074274 504.102568 399.843341 501.521631 393.347218 501.521631 
C 386.851095 501.521631 380.620162 504.102568 376.02671 508.696021 
C 371.433258 513.289473 368.852321 519.520406 368.852321 526.016529 
C 368.852321 532.512652 371.433258 538.743585 376.02671 543.337037 
C 380.620162 547.930489 386.851095 550.511426 393.347218 550.511426 
z
" clip-path="url(#pb999316450)" style="fill: #add8e6; stroke: #add8e6"/>
    <path d="M 614.570861 379.692701 
C 621.066984 379.692701 627.297917 377.111764 631.891369 372.518311 
C 636.484822 367.924859 639.065758 361.693926 639.065758 355.197803 
C 639.065758 348.701681 636.484822 342.470748 631.891369 337.877295 
C 627.297917 333.283843 621.066984 330.702906 614.570861 330.702906 
C 608.074738 330.702906 601.843805 333.283843 597.250353 337.877295 
C 592.6569 342.470748 590.075964 348.701681 590.075964 355.197803 
C 590.075964 361.693926 592.6569 367.924859 597.250353 372.518311 
C 601.843805 377.111764 608.074738 379.692701 614.570861 379.692701 
z
" clip-path="url(#pb999316450)" style="fill: #add8e6; stroke: #add8e6"/>
    <path d="M 734.013825 430.478315 
C 740.509947 430.478315 746.74088 427.897378 751.334333 423.303926 
C 755.927785 418.710473 758.508722 412.47954 758.508722 405.983417 
C 758.508722 399.487295 755.927785 393.256362 751.334333 388.662909 
C 746.74088 384.069457 740.509947 381.48852 734.013825 381.48852 
C 727.517702 381.48852 721.286769 384.069457 716.693317 388.662909 
C 712.099864 393.256362 709.518927 399.487295 709.518927 405.983417 
C 709.518927 412.47954 712.099864 418.710473 716.693317 423.303926 
C 721.286769 427.897378 727.517702 430.478315 734.013825 430.478315 
z
" clip-path="url(#pb999316450)" style="fill: #add8e6; stroke: #add8e6"/>
    <path d="M 669.648313 230.606254 
C 676.144436 230.606254 682.375368 228.025317 686.968821 223.431864 
C 691.562273 218.838412 694.14321 212.607479 694.14321 206.111356 
C 694.14321 199.615233 691.562273 193.384301 686.968821 188.790848 
C 682.375368 184.197396 676.144436 181.616459 669.648313 181.616459 
C 663.15219 181.616459 656.921257 184.197396 652.327805 188.790848 
C 647.734352 193.384301 645.153415 199.615233 645.153415 206.111356 
C 645.153415 212.607479 647.734352 218.838412 652.327805 223.431864 
C 656.921257 228.025317 663.15219 230.606254 669.648313 230.606254 
z
" clip-path="url(#pb999316450)" style="fill: #add8e6; stroke: #add8e6"/>
    <path d="M 219.139732 242.879881 
C 225.635854 242.879881 231.866787 240.298944 236.46024 235.705492 
C 241.053692 231.112039 243.634629 224.881107 243.634629 218.384984 
C 243.634629 211.888861 241.053692 205.657928 236.46024 201.064476 
C 231.866787 196.471023 225.635854 193.890086 219.139732 193.890086 
C 212.643609 193.890086 206.412676 196.471023 201.819224 201.064476 
C 197.225771 205.657928 194.644834 211.888861 194.644834 218.384984 
C 194.644834 224.881107 197.225771 231.112039 201.819224 235.705492 
C 206.412676 240.298944 212.643609 242.879881 219.139732 242.879881 
z
" clip-path="url(#pb999316450)" style="fill: #add8e6; stroke: #add8e6"/>
    <path d="M 724.474675 169.524608 
C 730.834022 169.524608 736.933762 166.998012 741.4305 162.501275 
C 745.927237 158.004538 748.453832 151.904797 748.453832 145.54545 
C 748.453832 139.186103 745.927237 133.086362 741.4305 128.589625 
C 736.933762 124.092888 730.834022 121.566292 724.474675 121.566292 
C 718.115328 121.566292 712.015587 124.092888 707.51885 128.589625 
C 703.022113 133.086362 700.495517 139.186103 700.495517 145.54545 
C 700.495517 151.904797 703.022113 158.004538 707.51885 162.501275 
C 712.015587 166.998012 718.115328 169.524608 724.474675 169.524608 
z
" clip-path="url(#pb999316450)" style="fill: #add8e6; stroke: #add8e6"/>
   </g>
   <g id="text_1">
    <g clip-path="url(#pb999316450)">
     <!-- United_Kingdom -->
     <g transform="translate(387.217481 292.27274) scale(0.1 -0.1)">
      <defs>
       <path id="DejaVuSans-Bold-55" d="M 588 4666 
L 1791 4666 
L 1791 1869 
Q 1791 1291 1980 1042 
Q 2169 794 2597 794 
Q 3028 794 3217 1042 
Q 3406 1291 3406 1869 
L 3406 4666 
L 4609 4666 
L 4609 1869 
Q 4609 878 4112 393 
Q 3616 -91 2597 -91 
Q 1581 -91 1084 393 
Q 588 878 588 1869 
L 588 4666 
z
" transform="scale(0.015625)"/>
       <path id="DejaVuSans-Bold-6e" d="M 4056 2131 
L 4056 0 
L 2931 0 
L 2931 347 
L 2931 1631 
Q 2931 2084 2911 2256 
Q 2891 2428 2841 2509 
Q 2775 2619 2662 2680 
Q 2550 2741 2406 2741 
Q 2056 2741 1856 2470 
Q 1656 2200 1656 1722 
L 1656 0 
L 538 0 
L 538 3500 
L 1656 3500 
L 1656 2988 
Q 1909 3294 2193 3439 
Q 2478 3584 2822 3584 
Q 3428 3584 3742 3212 
Q 4056 2841 4056 2131 
z
" transform="scale(0.015625)"/>
       <path id="DejaVuSans-Bold-69" d="M 538 3500 
L 1656 3500 
L 1656 0 
L 538 0 
L 538 3500 
z
M 538 4863 
L 1656 4863 
L 1656 3950 
L 538 3950 
L 538 4863 
z
" transform="scale(0.015625)"/>
       <path id="DejaVuSans-Bold-74" d="M 1759 4494 
L 1759 3500 
L 2913 3500 
L 2913 2700 
L 1759 2700 
L 1759 1216 
Q 1759 972 1856 886 
Q 1953 800 2241 800 
L 2816 800 
L 2816 0 
L 1856 0 
Q 1194 0 917 276 
Q 641 553 641 1216 
L 641 2700 
L 84 2700 
L 84 3500 
L 641 3500 
L 641 4494 
L 1759 4494 
z
" transform="scale(0.015625)"/>
       <path id="DejaVuSans-Bold-65" d="M 4031 1759 
L 4031 1441 
L 1416 1441 
Q 1456 1047 1700 850 
Q 1944 653 2381 653 
Q 2734 653 3104 758 
Q 3475 863 3866 1075 
L 3866 213 
Q 3469 63 3072 -14 
Q 2675 -91 2278 -91 
Q 1328 -91 801 392 
Q 275 875 275 1747 
Q 275 2603 792 3093 
Q 1309 3584 2216 3584 
Q 3041 3584 3536 3087 
Q 4031 2591 4031 1759 
z
M 2881 2131 
Q 2881 2450 2695 2645 
Q 2509 2841 2209 2841 
Q 1884 2841 1681 2658 
Q 1478 2475 1428 2131 
L 2881 2131 
z
" transform="scale(0.015625)"/>
       <path id="DejaVuSans-Bold-64" d="M 2919 2988 
L 2919 4863 
L 4044 4863 
L 4044 0 
L 2919 0 
L 2919 506 
Q 2688 197 2409 53 
Q 2131 -91 1766 -91 
Q 1119 -91 703 423 
Q 288 938 288 1747 
Q 288 2556 703 3070 
Q 1119 3584 1766 3584 
Q 2128 3584 2408 3439 
Q 2688 3294 2919 2988 
z
M 2181 722 
Q 2541 722 2730 984 
Q 2919 1247 2919 1747 
Q 2919 2247 2730 2509 
Q 2541 2772 2181 2772 
Q 1825 2772 1636 2509 
Q 1447 2247 1447 1747 
Q 1447 1247 1636 984 
Q 1825 722 2181 722 
z
" transform="scale(0.015625)"/>
       <path id="DejaVuSans-Bold-5f" d="M 3200 -916 
L 3200 -1509 
L 0 -1509 
L 0 -916 
L 3200 -916 
z
" transform="scale(0.015625)"/>
       <path id="DejaVuSans-Bold-4b" d="M 588 4666 
L 1791 4666 
L 1791 2963 
L 3525 4666 
L 4922 4666 
L 2675 2456 
L 5153 0 
L 3647 0 
L 1791 1838 
L 1791 0 
L 588 0 
L 588 4666 
z
" transform="scale(0.015625)"/>
       <path id="DejaVuSans-Bold-67" d="M 2919 594 
Q 2688 288 2409 144 
Q 2131 0 1766 0 
Q 1125 0 706 504 
Q 288 1009 288 1791 
Q 288 2575 706 3076 
Q 1125 3578 1766 3578 
Q 2131 3578 2409 3434 
Q 2688 3291 2919 2981 
L 2919 3500 
L 4044 3500 
L 4044 353 
Q 4044 -491 3511 -936 
Q 2978 -1381 1966 -1381 
Q 1638 -1381 1331 -1331 
Q 1025 -1281 716 -1178 
L 716 -306 
Q 1009 -475 1290 -558 
Q 1572 -641 1856 -641 
Q 2406 -641 2662 -400 
Q 2919 -159 2919 353 
L 2919 594 
z
M 2181 2772 
Q 1834 2772 1640 2515 
Q 1447 2259 1447 1791 
Q 1447 1309 1634 1061 
Q 1822 813 2181 813 
Q 2531 813 2725 1069 
Q 2919 1325 2919 1791 
Q 2919 2259 2725 2515 
Q 2531 2772 2181 2772 
z
" transform="scale(0.015625)"/>
       <path id="DejaVuSans-Bold-6f" d="M 2203 2784 
Q 1831 2784 1636 2517 
Q 1441 2250 1441 1747 
Q 1441 1244 1636 976 
Q 1831 709 2203 709 
Q 2569 709 2762 976 
Q 2956 1244 2956 1747 
Q 2956 2250 2762 2517 
Q 2569 2784 2203 2784 
z
M 2203 3584 
Q 3106 3584 3614 3096 
Q 4122 2609 4122 1747 
Q 4122 884 3614 396 
Q 3106 -91 2203 -91 
Q 1297 -91 786 396 
Q 275 884 275 1747 
Q 275 2609 786 3096 
Q 1297 3584 2203 3584 
z
" transform="scale(0.015625)"/>
       <path id="DejaVuSans-Bold-6d" d="M 3781 2919 
Q 3994 3244 4286 3414 
Q 4578 3584 4928 3584 
Q 5531 3584 5847 3212 
Q 6163 2841 6163 2131 
L 6163 0 
L 5038 0 
L 5038 1825 
Q 5041 1866 5042 1909 
Q 5044 1953 5044 2034 
Q 5044 2406 4934 2573 
Q 4825 2741 4581 2741 
Q 4263 2741 4089 2478 
Q 3916 2216 3909 1719 
L 3909 0 
L 2784 0 
L 2784 1825 
Q 2784 2406 2684 2573 
Q 2584 2741 2328 2741 
Q 2006 2741 1831 2477 
Q 1656 2213 1656 1722 
L 1656 0 
L 531 0 
L 531 3500 
L 1656 3500 
L 1656 2988 
Q 1863 3284 2130 3434 
Q 2397 3584 2719 3584 
Q 3081 3584 3359 3409 
Q 3638 3234 3781 2919 
z
" transform="scale(0.015625)"/>
      </defs>
      <use xlink:href="#DejaVuSans-Bold-55"/>
      <use xlink:href="#DejaVuSans-Bold-6e" x="81.201172"/>
      <use xlink:href="#DejaVuSans-Bold-69" x="152.392578"/>
      <use xlink:href="#DejaVuSans-Bold-74" x="186.669922"/>
      <use xlink:href="#DejaVuSans-Bold-65" x="234.472656"/>
      <use xlink:href="#DejaVuSans-Bold-64" x="302.294922"/>
      <use xlink:href="#DejaVuSans-Bold-5f" x="373.876953"/>
      <use xlink:href="#DejaVuSans-Bold-4b" x="423.876953"/>
      <use xlink:href="#DejaVuSans-Bold-69" x="501.367188"/>
      <use xlink:href="#DejaVuSans-Bold-6e" x="535.644531"/>
      <use xlink:href="#DejaVuSans-Bold-67" x="606.835938"/>
      <use xlink:href="#DejaVuSans-Bold-64" x="678.417969"/>
      <use xlink:href="#DejaVuSans-Bold-6f" x="750"/>
      <use xlink:href="#DejaVuSans-Bold-6d" x="818.701172"/>
     </g>
    </g>
   </g>
   <g id="text_2">
    <g clip-path="url(#pb999316450)">
     <!-- England -->
     <g transform="translate(766.244325 242.240802) scale(0.1 -0.1)">
      <defs>
       <path id="DejaVuSans-Bold-45" d="M 588 4666 
L 3834 4666 
L 3834 3756 
L 1791 3756 
L 1791 2888 
L 3713 2888 
L 3713 1978 
L 1791 1978 
L 1791 909 
L 3903 909 
L 3903 0 
L 588 0 
L 588 4666 
z
" transform="scale(0.015625)"/>
       <path id="DejaVuSans-Bold-6c" d="M 538 4863 
L 1656 4863 
L 1656 0 
L 538 0 
L 538 4863 
z
" transform="scale(0.015625)"/>
       <path id="DejaVuSans-Bold-61" d="M 2106 1575 
Q 1756 1575 1579 1456 
Q 1403 1338 1403 1106 
Q 1403 894 1545 773 
Q 1688 653 1941 653 
Q 2256 653 2472 879 
Q 2688 1106 2688 1447 
L 2688 1575 
L 2106 1575 
z
M 3816 1997 
L 3816 0 
L 2688 0 
L 2688 519 
Q 2463 200 2181 54 
Q 1900 -91 1497 -91 
Q 953 -91 614 226 
Q 275 544 275 1050 
Q 275 1666 698 1953 
Q 1122 2241 2028 2241 
L 2688 2241 
L 2688 2328 
Q 2688 2594 2478 2717 
Q 2269 2841 1825 2841 
Q 1466 2841 1156 2769 
Q 847 2697 581 2553 
L 581 3406 
Q 941 3494 1303 3539 
Q 1666 3584 2028 3584 
Q 2975 3584 3395 3211 
Q 3816 2838 3816 1997 
z
" transform="scale(0.015625)"/>
      </defs>
      <use xlink:href="#DejaVuSans-Bold-45"/>
      <use xlink:href="#DejaVuSans-Bold-6e" x="68.310547"/>
      <use xlink:href="#DejaVuSans-Bold-67" x="139.501953"/>
      <use xlink:href="#DejaVuSans-Bold-6c" x="211.083984"/>
      <use xlink:href="#DejaVuSans-Bold-61" x="245.361328"/>
      <use xlink:href="#DejaVuSans-Bold-6e" x="312.841797"/>
      <use xlink:href="#DejaVuSans-Bold-64" x="384.033203"/>
     </g>
    </g>
   </g>
   <g id="text_3">
    <g clip-path="url(#pb999316450)">
     <!-- Scotland -->
     <g transform="translate(65.04332 360.37569) scale(0.1 -0.1)">
      <defs>
       <path id="DejaVuSans-Bold-53" d="M 3834 4519 
L 3834 3531 
Q 3450 3703 3084 3790 
Q 2719 3878 2394 3878 
Q 1963 3878 1756 3759 
Q 1550 3641 1550 3391 
Q 1550 3203 1689 3098 
Q 1828 2994 2194 2919 
L 2706 2816 
Q 3484 2659 3812 2340 
Q 4141 2022 4141 1434 
Q 4141 663 3683 286 
Q 3225 -91 2284 -91 
Q 1841 -91 1394 -6 
Q 947 78 500 244 
L 500 1259 
Q 947 1022 1364 901 
Q 1781 781 2169 781 
Q 2563 781 2772 912 
Q 2981 1044 2981 1288 
Q 2981 1506 2839 1625 
Q 2697 1744 2272 1838 
L 1806 1941 
Q 1106 2091 782 2419 
Q 459 2747 459 3303 
Q 459 4000 909 4375 
Q 1359 4750 2203 4750 
Q 2588 4750 2994 4692 
Q 3400 4634 3834 4519 
z
" transform="scale(0.015625)"/>
       <path id="DejaVuSans-Bold-63" d="M 3366 3391 
L 3366 2478 
Q 3138 2634 2908 2709 
Q 2678 2784 2431 2784 
Q 1963 2784 1702 2511 
Q 1441 2238 1441 1747 
Q 1441 1256 1702 982 
Q 1963 709 2431 709 
Q 2694 709 2930 787 
Q 3166 866 3366 1019 
L 3366 103 
Q 3103 6 2833 -42 
Q 2563 -91 2291 -91 
Q 1344 -91 809 395 
Q 275 881 275 1747 
Q 275 2613 809 3098 
Q 1344 3584 2291 3584 
Q 2566 3584 2833 3536 
Q 3100 3488 3366 3391 
z
" transform="scale(0.015625)"/>
      </defs>
      <use xlink:href="#DejaVuSans-Bold-53"/>
      <use xlink:href="#DejaVuSans-Bold-63" x="72.021484"/>
      <use xlink:href="#DejaVuSans-Bold-6f" x="131.298828"/>
      <use xlink:href="#DejaVuSans-Bold-74" x="200"/>
      <use xlink:href="#DejaVuSans-Bold-6c" x="247.802734"/>
      <use xlink:href="#DejaVuSans-Bold-61" x="282.080078"/>
      <use xlink:href="#DejaVuSans-Bold-6e" x="349.560547"/>
      <use xlink:href="#DejaVuSans-Bold-64" x="420.751953"/>
     </g>
    </g>
   </g>
   <g id="text_4">
    <g clip-path="url(#pb999316450)">
     <!-- United_States -->
     <g transform="translate(290.739532 439.762835) scale(0.1 -0.1)">
      <defs>
       <path id="DejaVuSans-Bold-73" d="M 3272 3391 
L 3272 2541 
Q 2913 2691 2578 2766 
Q 2244 2841 1947 2841 
Q 1628 2841 1473 2761 
Q 1319 2681 1319 2516 
Q 1319 2381 1436 2309 
Q 1553 2238 1856 2203 
L 2053 2175 
Q 2913 2066 3209 1816 
Q 3506 1566 3506 1031 
Q 3506 472 3093 190 
Q 2681 -91 1863 -91 
Q 1516 -91 1145 -36 
Q 775 19 384 128 
L 384 978 
Q 719 816 1070 734 
Q 1422 653 1784 653 
Q 2113 653 2278 743 
Q 2444 834 2444 1013 
Q 2444 1163 2330 1236 
Q 2216 1309 1875 1350 
L 1678 1375 
Q 931 1469 631 1722 
Q 331 1975 331 2491 
Q 331 3047 712 3315 
Q 1094 3584 1881 3584 
Q 2191 3584 2531 3537 
Q 2872 3491 3272 3391 
z
" transform="scale(0.015625)"/>
      </defs>
      <use xlink:href="#DejaVuSans-Bold-55"/>
      <use xlink:href="#DejaVuSans-Bold-6e" x="81.201172"/>
      <use xlink:href="#DejaVuSans-Bold-69" x="152.392578"/>
      <use xlink:href="#DejaVuSans-Bold-74" x="186.669922"/>
      <use xlink:href="#DejaVuSans-Bold-65" x="234.472656"/>
      <use xlink:href="#DejaVuSans-Bold-64" x="302.294922"/>
      <use xlink:href="#DejaVuSans-Bold-5f" x="373.876953"/>
      <use xlink:href="#DejaVuSans-Bold-53" x="423.876953"/>
      <use xlink:href="#DejaVuSans-Bold-74" x="495.898438"/>
      <use xlink:href="#DejaVuSans-Bold-61" x="543.701172"/>
      <use xlink:href="#DejaVuSans-Bold-74" x="611.181641"/>
      <use xlink:href="#DejaVuSans-Bold-65" x="658.984375"/>
      <use xlink:href="#DejaVuSans-Bold-73" x="726.806641"/>
     </g>
    </g>
   </g>
   <g id="text_5">
    <g clip-path="url(#pb999316450)">
     <!-- British_monarchy -->
     <g transform="translate(398.331244 108.459877) scale(0.1 -0.1)">
      <defs>
       <path id="DejaVuSans-Bold-42" d="M 2456 2859 
Q 2741 2859 2887 2984 
Q 3034 3109 3034 3353 
Q 3034 3594 2887 3720 
Q 2741 3847 2456 3847 
L 1791 3847 
L 1791 2859 
L 2456 2859 
z
M 2497 819 
Q 2859 819 3042 972 
Q 3225 1125 3225 1434 
Q 3225 1738 3044 1889 
Q 2863 2041 2497 2041 
L 1791 2041 
L 1791 819 
L 2497 819 
z
M 3616 2497 
Q 4003 2384 4215 2081 
Q 4428 1778 4428 1338 
Q 4428 663 3972 331 
Q 3516 0 2584 0 
L 588 0 
L 588 4666 
L 2394 4666 
Q 3366 4666 3802 4372 
Q 4238 4078 4238 3431 
Q 4238 3091 4078 2852 
Q 3919 2613 3616 2497 
z
" transform="scale(0.015625)"/>
       <path id="DejaVuSans-Bold-72" d="M 3138 2547 
Q 2991 2616 2845 2648 
Q 2700 2681 2553 2681 
Q 2122 2681 1889 2404 
Q 1656 2128 1656 1613 
L 1656 0 
L 538 0 
L 538 3500 
L 1656 3500 
L 1656 2925 
Q 1872 3269 2151 3426 
Q 2431 3584 2822 3584 
Q 2878 3584 2943 3579 
Q 3009 3575 3134 3559 
L 3138 2547 
z
" transform="scale(0.015625)"/>
       <path id="DejaVuSans-Bold-68" d="M 4056 2131 
L 4056 0 
L 2931 0 
L 2931 347 
L 2931 1625 
Q 2931 2084 2911 2256 
Q 2891 2428 2841 2509 
Q 2775 2619 2662 2680 
Q 2550 2741 2406 2741 
Q 2056 2741 1856 2470 
Q 1656 2200 1656 1722 
L 1656 0 
L 538 0 
L 538 4863 
L 1656 4863 
L 1656 2988 
Q 1909 3294 2193 3439 
Q 2478 3584 2822 3584 
Q 3428 3584 3742 3212 
Q 4056 2841 4056 2131 
z
" transform="scale(0.015625)"/>
       <path id="DejaVuSans-Bold-79" d="M 78 3500 
L 1197 3500 
L 2138 1125 
L 2938 3500 
L 4056 3500 
L 2584 -331 
Q 2363 -916 2067 -1148 
Q 1772 -1381 1288 -1381 
L 641 -1381 
L 641 -647 
L 991 -647 
Q 1275 -647 1404 -556 
Q 1534 -466 1606 -231 
L 1638 -134 
L 78 3500 
z
" transform="scale(0.015625)"/>
      </defs>
      <use xlink:href="#DejaVuSans-Bold-42"/>
      <use xlink:href="#DejaVuSans-Bold-72" x="76.220703"/>
      <use xlink:href="#DejaVuSans-Bold-69" x="125.537109"/>
      <use xlink:href="#DejaVuSans-Bold-74" x="159.814453"/>
      <use xlink:href="#DejaVuSans-Bold-69" x="207.617188"/>
      <use xlink:href="#DejaVuSans-Bold-73" x="241.894531"/>
      <use xlink:href="#DejaVuSans-Bold-68" x="301.416016"/>
      <use xlink:href="#DejaVuSans-Bold-5f" x="372.607422"/>
      <use xlink:href="#DejaVuSans-Bold-6d" x="422.607422"/>
      <use xlink:href="#DejaVuSans-Bold-6f" x="526.806641"/>
      <use xlink:href="#DejaVuSans-Bold-6e" x="595.507812"/>
      <use xlink:href="#DejaVuSans-Bold-61" x="666.699219"/>
      <use xlink:href="#DejaVuSans-Bold-72" x="734.179688"/>
      <use xlink:href="#DejaVuSans-Bold-63" x="783.496094"/>
      <use xlink:href="#DejaVuSans-Bold-68" x="842.773438"/>
      <use xlink:href="#DejaVuSans-Bold-79" x="913.964844"/>
     </g>
    </g>
   </g>
   <g id="text_6">
    <g clip-path="url(#pb999316450)">
     <!-- London -->
     <g transform="translate(645.191237 477.462321) scale(0.1 -0.1)">
      <defs>
       <path id="DejaVuSans-Bold-4c" d="M 588 4666 
L 1791 4666 
L 1791 909 
L 3903 909 
L 3903 0 
L 588 0 
L 588 4666 
z
" transform="scale(0.015625)"/>
      </defs>
      <use xlink:href="#DejaVuSans-Bold-4c"/>
      <use xlink:href="#DejaVuSans-Bold-6f" x="63.720703"/>
      <use xlink:href="#DejaVuSans-Bold-6e" x="132.421875"/>
      <use xlink:href="#DejaVuSans-Bold-64" x="203.613281"/>
      <use xlink:href="#DejaVuSans-Bold-6f" x="275.195312"/>
      <use xlink:href="#DejaVuSans-Bold-6e" x="343.896484"/>
     </g>
    </g>
   </g>
   <g id="text_7">
    <g clip-path="url(#pb999316450)">
     <!-- British_Isles_(terminology) -->
     <g transform="translate(194.371381 109.302477) scale(0.1 -0.1)">
      <defs>
       <path id="DejaVuSans-Bold-49" d="M 588 4666 
L 1791 4666 
L 1791 0 
L 588 0 
L 588 4666 
z
" transform="scale(0.015625)"/>
       <path id="DejaVuSans-Bold-28" d="M 2413 -844 
L 1484 -844 
Q 1006 -72 778 623 
Q 550 1319 550 2003 
Q 550 2688 779 3389 
Q 1009 4091 1484 4856 
L 2413 4856 
Q 2013 4116 1813 3408 
Q 1613 2700 1613 2009 
Q 1613 1319 1811 609 
Q 2009 -100 2413 -844 
z
" transform="scale(0.015625)"/>
       <path id="DejaVuSans-Bold-29" d="M 513 -844 
Q 913 -100 1113 609 
Q 1313 1319 1313 2009 
Q 1313 2700 1113 3408 
Q 913 4116 513 4856 
L 1441 4856 
Q 1916 4091 2145 3389 
Q 2375 2688 2375 2003 
Q 2375 1319 2147 623 
Q 1919 -72 1441 -844 
L 513 -844 
z
" transform="scale(0.015625)"/>
      </defs>
      <use xlink:href="#DejaVuSans-Bold-42"/>
      <use xlink:href="#DejaVuSans-Bold-72" x="76.220703"/>
      <use xlink:href="#DejaVuSans-Bold-69" x="125.537109"/>
      <use xlink:href="#DejaVuSans-Bold-74" x="159.814453"/>
      <use xlink:href="#DejaVuSans-Bold-69" x="207.617188"/>
      <use xlink:href="#DejaVuSans-Bold-73" x="241.894531"/>
      <use xlink:href="#DejaVuSans-Bold-68" x="301.416016"/>
      <use xlink:href="#DejaVuSans-Bold-5f" x="372.607422"/>
      <use xlink:href="#DejaVuSans-Bold-49" x="422.607422"/>
      <use xlink:href="#DejaVuSans-Bold-73" x="459.814453"/>
      <use xlink:href="#DejaVuSans-Bold-6c" x="519.335938"/>
      <use xlink:href="#DejaVuSans-Bold-65" x="553.613281"/>
      <use xlink:href="#DejaVuSans-Bold-73" x="621.435547"/>
      <use xlink:href="#DejaVuSans-Bold-5f" x="680.957031"/>
      <use xlink:href="#DejaVuSans-Bold-28" x="730.957031"/>
      <use xlink:href="#DejaVuSans-Bold-74" x="776.660156"/>
      <use xlink:href="#DejaVuSans-Bold-65" x="824.462891"/>
      <use xlink:href="#DejaVuSans-Bold-72" x="892.285156"/>
      <use xlink:href="#DejaVuSans-Bold-6d" x="941.601562"/>
      <use xlink:href="#DejaVuSans-Bold-69" x="1045.800781"/>
      <use xlink:href="#DejaVuSans-Bold-6e" x="1080.078125"/>
      <use xlink:href="#DejaVuSans-Bold-6f" x="1151.269531"/>
      <use xlink:href="#DejaVuSans-Bold-6c" x="1219.970703"/>
      <use xlink:href="#DejaVuSans-Bold-6f" x="1254.248047"/>
      <use xlink:href="#DejaVuSans-Bold-67" x="1322.949219"/>
      <use xlink:href="#DejaVuSans-Bold-79" x="1394.53125"/>
      <use xlink:href="#DejaVuSans-Bold-29" x="1459.716797"/>
     </g>
    </g>
   </g>
   <g id="text_8">
    <g clip-path="url(#pb999316450)">
     <!-- Europe -->
     <g transform="translate(428.950351 451.246012) scale(0.1 -0.1)">
      <defs>
       <path id="DejaVuSans-Bold-75" d="M 500 1363 
L 500 3500 
L 1625 3500 
L 1625 3150 
Q 1625 2866 1622 2436 
Q 1619 2006 1619 1863 
Q 1619 1441 1641 1255 
Q 1663 1069 1716 984 
Q 1784 875 1895 815 
Q 2006 756 2150 756 
Q 2500 756 2700 1025 
Q 2900 1294 2900 1772 
L 2900 3500 
L 4019 3500 
L 4019 0 
L 2900 0 
L 2900 506 
Q 2647 200 2364 54 
Q 2081 -91 1741 -91 
Q 1134 -91 817 281 
Q 500 653 500 1363 
z
" transform="scale(0.015625)"/>
       <path id="DejaVuSans-Bold-70" d="M 1656 506 
L 1656 -1331 
L 538 -1331 
L 538 3500 
L 1656 3500 
L 1656 2988 
Q 1888 3294 2169 3439 
Q 2450 3584 2816 3584 
Q 3463 3584 3878 3070 
Q 4294 2556 4294 1747 
Q 4294 938 3878 423 
Q 3463 -91 2816 -91 
Q 2450 -91 2169 54 
Q 1888 200 1656 506 
z
M 2400 2772 
Q 2041 2772 1848 2508 
Q 1656 2244 1656 1747 
Q 1656 1250 1848 986 
Q 2041 722 2400 722 
Q 2759 722 2948 984 
Q 3138 1247 3138 1747 
Q 3138 2247 2948 2509 
Q 2759 2772 2400 2772 
z
" transform="scale(0.015625)"/>
      </defs>
      <use xlink:href="#DejaVuSans-Bold-45"/>
      <use xlink:href="#DejaVuSans-Bold-75" x="68.310547"/>
      <use xlink:href="#DejaVuSans-Bold-72" x="139.501953"/>
      <use xlink:href="#DejaVuSans-Bold-6f" x="188.818359"/>
      <use xlink:href="#DejaVuSans-Bold-70" x="257.519531"/>
      <use xlink:href="#DejaVuSans-Bold-65" x="329.101562"/>
     </g>
    </g>
   </g>
   <g id="text_9">
    <g clip-path="url(#pb999316450)">
     <!-- Elizabeth_II_of_the_United_Kingdom -->
     <g transform="translate(430.754627 518.439074) scale(0.1 -0.1)">
      <defs>
       <path id="DejaVuSans-Bold-7a" d="M 366 3500 
L 3419 3500 
L 3419 2719 
L 1575 800 
L 3419 800 
L 3419 0 
L 288 0 
L 288 781 
L 2131 2700 
L 366 2700 
L 366 3500 
z
" transform="scale(0.015625)"/>
       <path id="DejaVuSans-Bold-62" d="M 2400 722 
Q 2759 722 2948 984 
Q 3138 1247 3138 1747 
Q 3138 2247 2948 2509 
Q 2759 2772 2400 2772 
Q 2041 2772 1848 2508 
Q 1656 2244 1656 1747 
Q 1656 1250 1848 986 
Q 2041 722 2400 722 
z
M 1656 2988 
Q 1888 3294 2169 3439 
Q 2450 3584 2816 3584 
Q 3463 3584 3878 3070 
Q 4294 2556 4294 1747 
Q 4294 938 3878 423 
Q 3463 -91 2816 -91 
Q 2450 -91 2169 54 
Q 1888 200 1656 506 
L 1656 0 
L 538 0 
L 538 4863 
L 1656 4863 
L 1656 2988 
z
" transform="scale(0.015625)"/>
       <path id="DejaVuSans-Bold-66" d="M 2841 4863 
L 2841 4128 
L 2222 4128 
Q 1984 4128 1890 4042 
Q 1797 3956 1797 3744 
L 1797 3500 
L 2753 3500 
L 2753 2700 
L 1797 2700 
L 1797 0 
L 678 0 
L 678 2700 
L 122 2700 
L 122 3500 
L 678 3500 
L 678 3744 
Q 678 4316 997 4589 
Q 1316 4863 1984 4863 
L 2841 4863 
z
" transform="scale(0.015625)"/>
      </defs>
      <use xlink:href="#DejaVuSans-Bold-45"/>
      <use xlink:href="#DejaVuSans-Bold-6c" x="68.310547"/>
      <use xlink:href="#DejaVuSans-Bold-69" x="102.587891"/>
      <use xlink:href="#DejaVuSans-Bold-7a" x="136.865234"/>
      <use xlink:href="#DejaVuSans-Bold-61" x="195.068359"/>
      <use xlink:href="#DejaVuSans-Bold-62" x="262.548828"/>
      <use xlink:href="#DejaVuSans-Bold-65" x="334.130859"/>
      <use xlink:href="#DejaVuSans-Bold-74" x="401.953125"/>
      <use xlink:href="#DejaVuSans-Bold-68" x="449.755859"/>
      <use xlink:href="#DejaVuSans-Bold-5f" x="520.947266"/>
      <use xlink:href="#DejaVuSans-Bold-49" x="570.947266"/>
      <use xlink:href="#DejaVuSans-Bold-49" x="608.154297"/>
      <use xlink:href="#DejaVuSans-Bold-5f" x="645.361328"/>
      <use xlink:href="#DejaVuSans-Bold-6f" x="695.361328"/>
      <use xlink:href="#DejaVuSans-Bold-66" x="764.0625"/>
      <use xlink:href="#DejaVuSans-Bold-5f" x="807.568359"/>
      <use xlink:href="#DejaVuSans-Bold-74" x="857.568359"/>
      <use xlink:href="#DejaVuSans-Bold-68" x="905.371094"/>
      <use xlink:href="#DejaVuSans-Bold-65" x="976.5625"/>
      <use xlink:href="#DejaVuSans-Bold-5f" x="1044.384766"/>
      <use xlink:href="#DejaVuSans-Bold-55" x="1094.384766"/>
      <use xlink:href="#DejaVuSans-Bold-6e" x="1175.585938"/>
      <use xlink:href="#DejaVuSans-Bold-69" x="1246.777344"/>
      <use xlink:href="#DejaVuSans-Bold-74" x="1281.054688"/>
      <use xlink:href="#DejaVuSans-Bold-65" x="1328.857422"/>
      <use xlink:href="#DejaVuSans-Bold-64" x="1396.679688"/>
      <use xlink:href="#DejaVuSans-Bold-5f" x="1468.261719"/>
      <use xlink:href="#DejaVuSans-Bold-4b" x="1518.261719"/>
      <use xlink:href="#DejaVuSans-Bold-69" x="1595.751953"/>
      <use xlink:href="#DejaVuSans-Bold-6e" x="1630.029297"/>
      <use xlink:href="#DejaVuSans-Bold-67" x="1701.220703"/>
      <use xlink:href="#DejaVuSans-Bold-64" x="1772.802734"/>
      <use xlink:href="#DejaVuSans-Bold-6f" x="1844.384766"/>
      <use xlink:href="#DejaVuSans-Bold-6d" x="1913.085938"/>
     </g>
    </g>
   </g>
   <g id="text_10">
    <g clip-path="url(#pb999316450)">
     <!-- English_language -->
     <g transform="translate(738.497921 338.212664) scale(0.1 -0.1)">
      <use xlink:href="#DejaVuSans-Bold-45"/>
      <use xlink:href="#DejaVuSans-Bold-6e" x="68.310547"/>
      <use xlink:href="#DejaVuSans-Bold-67" x="139.501953"/>
      <use xlink:href="#DejaVuSans-Bold-6c" x="211.083984"/>
      <use xlink:href="#DejaVuSans-Bold-69" x="245.361328"/>
      <use xlink:href="#DejaVuSans-Bold-73" x="279.638672"/>
      <use xlink:href="#DejaVuSans-Bold-68" x="339.160156"/>
      <use xlink:href="#DejaVuSans-Bold-5f" x="410.351562"/>
      <use xlink:href="#DejaVuSans-Bold-6c" x="460.351562"/>
      <use xlink:href="#DejaVuSans-Bold-61" x="494.628906"/>
      <use xlink:href="#DejaVuSans-Bold-6e" x="562.109375"/>
      <use xlink:href="#DejaVuSans-Bold-67" x="633.300781"/>
      <use xlink:href="#DejaVuSans-Bold-75" x="704.882812"/>
      <use xlink:href="#DejaVuSans-Bold-61" x="776.074219"/>
      <use xlink:href="#DejaVuSans-Bold-67" x="843.554688"/>
      <use xlink:href="#DejaVuSans-Bold-65" x="915.136719"/>
     </g>
    </g>
   </g>
   <g id="text_11">
    <g clip-path="url(#pb999316450)">
     <!-- British_Empire -->
     <g transform="translate(532.264773 437.091697) scale(0.1 -0.1)">
      <use xlink:href="#DejaVuSans-Bold-42"/>
      <use xlink:href="#DejaVuSans-Bold-72" x="76.220703"/>
      <use xlink:href="#DejaVuSans-Bold-69" x="125.537109"/>
      <use xlink:href="#DejaVuSans-Bold-74" x="159.814453"/>
      <use xlink:href="#DejaVuSans-Bold-69" x="207.617188"/>
      <use xlink:href="#DejaVuSans-Bold-73" x="241.894531"/>
      <use xlink:href="#DejaVuSans-Bold-68" x="301.416016"/>
      <use xlink:href="#DejaVuSans-Bold-5f" x="372.607422"/>
      <use xlink:href="#DejaVuSans-Bold-45" x="422.607422"/>
      <use xlink:href="#DejaVuSans-Bold-6d" x="490.917969"/>
      <use xlink:href="#DejaVuSans-Bold-70" x="595.117188"/>
      <use xlink:href="#DejaVuSans-Bold-69" x="666.699219"/>
      <use xlink:href="#DejaVuSans-Bold-72" x="700.976562"/>
      <use xlink:href="#DejaVuSans-Bold-65" x="750.292969"/>
     </g>
    </g>
   </g>
   <g id="text_12">
    <g clip-path="url(#pb999316450)">
     <!-- Wales -->
     <g transform="translate(177.670081 309.450455) scale(0.1 -0.1)">
      <defs>
       <path id="DejaVuSans-Bold-57" d="M 191 4666 
L 1344 4666 
L 2150 1275 
L 2950 4666 
L 4109 4666 
L 4909 1275 
L 5716 4666 
L 6859 4666 
L 5759 0 
L 4372 0 
L 3525 3547 
L 2688 0 
L 1300 0 
L 191 4666 
z
" transform="scale(0.015625)"/>
      </defs>
      <use xlink:href="#DejaVuSans-Bold-57"/>
      <use xlink:href="#DejaVuSans-Bold-61" x="106.677734"/>
      <use xlink:href="#DejaVuSans-Bold-6c" x="174.158203"/>
      <use xlink:href="#DejaVuSans-Bold-65" x="208.435547"/>
      <use xlink:href="#DejaVuSans-Bold-73" x="276.257812"/>
     </g>
    </g>
   </g>
   <g id="text_13">
    <g clip-path="url(#pb999316450)">
     <!-- European_Union -->
     <g transform="translate(576.425963 91.407739) scale(0.1 -0.1)">
      <use xlink:href="#DejaVuSans-Bold-45"/>
      <use xlink:href="#DejaVuSans-Bold-75" x="68.310547"/>
      <use xlink:href="#DejaVuSans-Bold-72" x="139.501953"/>
      <use xlink:href="#DejaVuSans-Bold-6f" x="188.818359"/>
      <use xlink:href="#DejaVuSans-Bold-70" x="257.519531"/>
      <use xlink:href="#DejaVuSans-Bold-65" x="329.101562"/>
      <use xlink:href="#DejaVuSans-Bold-61" x="396.923828"/>
      <use xlink:href="#DejaVuSans-Bold-6e" x="464.404297"/>
      <use xlink:href="#DejaVuSans-Bold-5f" x="535.595703"/>
      <use xlink:href="#DejaVuSans-Bold-55" x="585.595703"/>
      <use xlink:href="#DejaVuSans-Bold-6e" x="666.796875"/>
      <use xlink:href="#DejaVuSans-Bold-69" x="737.988281"/>
      <use xlink:href="#DejaVuSans-Bold-6f" x="772.265625"/>
      <use xlink:href="#DejaVuSans-Bold-6e" x="840.966797"/>
     </g>
    </g>
   </g>
   <g id="text_14">
    <g clip-path="url(#pb999316450)">
     <!-- Germany -->
     <g transform="translate(125.77976 440.072786) scale(0.1 -0.1)">
      <defs>
       <path id="DejaVuSans-Bold-47" d="M 4781 347 
Q 4331 128 3847 18 
Q 3363 -91 2847 -91 
Q 1681 -91 1000 561 
Q 319 1213 319 2328 
Q 319 3456 1012 4103 
Q 1706 4750 2913 4750 
Q 3378 4750 3804 4662 
Q 4231 4575 4609 4403 
L 4609 3438 
Q 4219 3659 3833 3768 
Q 3447 3878 3059 3878 
Q 2341 3878 1952 3476 
Q 1563 3075 1563 2328 
Q 1563 1588 1938 1184 
Q 2313 781 3003 781 
Q 3191 781 3352 804 
Q 3513 828 3641 878 
L 3641 1784 
L 2906 1784 
L 2906 2591 
L 4781 2591 
L 4781 347 
z
" transform="scale(0.015625)"/>
      </defs>
      <use xlink:href="#DejaVuSans-Bold-47"/>
      <use xlink:href="#DejaVuSans-Bold-65" x="82.080078"/>
      <use xlink:href="#DejaVuSans-Bold-72" x="149.902344"/>
      <use xlink:href="#DejaVuSans-Bold-6d" x="199.21875"/>
      <use xlink:href="#DejaVuSans-Bold-61" x="303.417969"/>
      <use xlink:href="#DejaVuSans-Bold-6e" x="370.898438"/>
      <use xlink:href="#DejaVuSans-Bold-79" x="442.089844"/>
     </g>
    </g>
   </g>
   <g id="text_15">
    <g clip-path="url(#pb999316450)">
     <!-- Manchester -->
     <g transform="translate(466.814184 52.742846) scale(0.1 -0.1)">
      <defs>
       <path id="DejaVuSans-Bold-4d" d="M 588 4666 
L 2119 4666 
L 3181 2169 
L 4250 4666 
L 5778 4666 
L 5778 0 
L 4641 0 
L 4641 3413 
L 3566 897 
L 2803 897 
L 1728 3413 
L 1728 0 
L 588 0 
L 588 4666 
z
" transform="scale(0.015625)"/>
      </defs>
      <use xlink:href="#DejaVuSans-Bold-4d"/>
      <use xlink:href="#DejaVuSans-Bold-61" x="99.511719"/>
      <use xlink:href="#DejaVuSans-Bold-6e" x="166.992188"/>
      <use xlink:href="#DejaVuSans-Bold-63" x="238.183594"/>
      <use xlink:href="#DejaVuSans-Bold-68" x="297.460938"/>
      <use xlink:href="#DejaVuSans-Bold-65" x="368.652344"/>
      <use xlink:href="#DejaVuSans-Bold-73" x="436.474609"/>
      <use xlink:href="#DejaVuSans-Bold-74" x="495.996094"/>
      <use xlink:href="#DejaVuSans-Bold-65" x="543.798828"/>
      <use xlink:href="#DejaVuSans-Bold-72" x="611.621094"/>
     </g>
    </g>
   </g>
   <g id="text_16">
    <g clip-path="url(#pb999316450)">
     <!-- British_Isles -->
     <g transform="translate(531.321103 159.537834) scale(0.1 -0.1)">
      <use xlink:href="#DejaVuSans-Bold-42"/>
      <use xlink:href="#DejaVuSans-Bold-72" x="76.220703"/>
      <use xlink:href="#DejaVuSans-Bold-69" x="125.537109"/>
      <use xlink:href="#DejaVuSans-Bold-74" x="159.814453"/>
      <use xlink:href="#DejaVuSans-Bold-69" x="207.617188"/>
      <use xlink:href="#DejaVuSans-Bold-73" x="241.894531"/>
      <use xlink:href="#DejaVuSans-Bold-68" x="301.416016"/>
      <use xlink:href="#DejaVuSans-Bold-5f" x="372.607422"/>
      <use xlink:href="#DejaVuSans-Bold-49" x="422.607422"/>
      <use xlink:href="#DejaVuSans-Bold-73" x="459.814453"/>
      <use xlink:href="#DejaVuSans-Bold-6c" x="519.335938"/>
      <use xlink:href="#DejaVuSans-Bold-65" x="553.613281"/>
      <use xlink:href="#DejaVuSans-Bold-73" x="621.435547"/>
     </g>
    </g>
   </g>
   <g id="text_17">
    <g clip-path="url(#pb999316450)">
     <!-- Ireland -->
     <g transform="translate(675.212748 290.247054) scale(0.1 -0.1)">
      <use xlink:href="#DejaVuSans-Bold-49"/>
      <use xlink:href="#DejaVuSans-Bold-72" x="37.207031"/>
      <use xlink:href="#DejaVuSans-Bold-65" x="86.523438"/>
      <use xlink:href="#DejaVuSans-Bold-6c" x="154.345703"/>
      <use xlink:href="#DejaVuSans-Bold-61" x="188.623047"/>
      <use xlink:href="#DejaVuSans-Bold-6e" x="256.103516"/>
      <use xlink:href="#DejaVuSans-Bold-64" x="327.294922"/>
     </g>
    </g>
   </g>
   <g id="text_18">
    <g clip-path="url(#pb999316450)">
     <!-- Northern_Ireland -->
     <g transform="translate(314.013362 176.764083) scale(0.1 -0.1)">
      <defs>
       <path id="DejaVuSans-Bold-4e" d="M 588 4666 
L 1931 4666 
L 3628 1466 
L 3628 4666 
L 4769 4666 
L 4769 0 
L 3425 0 
L 1728 3200 
L 1728 0 
L 588 0 
L 588 4666 
z
" transform="scale(0.015625)"/>
      </defs>
      <use xlink:href="#DejaVuSans-Bold-4e"/>
      <use xlink:href="#DejaVuSans-Bold-6f" x="83.691406"/>
      <use xlink:href="#DejaVuSans-Bold-72" x="152.392578"/>
      <use xlink:href="#DejaVuSans-Bold-74" x="201.708984"/>
      <use xlink:href="#DejaVuSans-Bold-68" x="249.511719"/>
      <use xlink:href="#DejaVuSans-Bold-65" x="320.703125"/>
      <use xlink:href="#DejaVuSans-Bold-72" x="388.525391"/>
      <use xlink:href="#DejaVuSans-Bold-6e" x="437.841797"/>
      <use xlink:href="#DejaVuSans-Bold-5f" x="509.033203"/>
      <use xlink:href="#DejaVuSans-Bold-49" x="559.033203"/>
      <use xlink:href="#DejaVuSans-Bold-72" x="596.240234"/>
      <use xlink:href="#DejaVuSans-Bold-65" x="645.556641"/>
      <use xlink:href="#DejaVuSans-Bold-6c" x="713.378906"/>
      <use xlink:href="#DejaVuSans-Bold-61" x="747.65625"/>
      <use xlink:href="#DejaVuSans-Bold-6e" x="815.136719"/>
      <use xlink:href="#DejaVuSans-Bold-64" x="886.328125"/>
     </g>
    </g>
   </g>
   <g id="text_19">
    <g clip-path="url(#pb999316450)">
     <!-- Commonwealth_Games -->
     <g transform="translate(9.851769 274.176627) scale(0.1 -0.1)">
      <defs>
       <path id="DejaVuSans-Bold-43" d="M 4288 256 
Q 3956 84 3597 -3 
Q 3238 -91 2847 -91 
Q 1681 -91 1000 561 
Q 319 1213 319 2328 
Q 319 3447 1000 4098 
Q 1681 4750 2847 4750 
Q 3238 4750 3597 4662 
Q 3956 4575 4288 4403 
L 4288 3438 
Q 3953 3666 3628 3772 
Q 3303 3878 2944 3878 
Q 2300 3878 1931 3465 
Q 1563 3053 1563 2328 
Q 1563 1606 1931 1193 
Q 2300 781 2944 781 
Q 3303 781 3628 887 
Q 3953 994 4288 1222 
L 4288 256 
z
" transform="scale(0.015625)"/>
       <path id="DejaVuSans-Bold-77" d="M 225 3500 
L 1313 3500 
L 1900 1088 
L 2491 3500 
L 3425 3500 
L 4013 1113 
L 4603 3500 
L 5691 3500 
L 4769 0 
L 3547 0 
L 2956 2406 
L 2369 0 
L 1147 0 
L 225 3500 
z
" transform="scale(0.015625)"/>
      </defs>
      <use xlink:href="#DejaVuSans-Bold-43"/>
      <use xlink:href="#DejaVuSans-Bold-6f" x="73.388672"/>
      <use xlink:href="#DejaVuSans-Bold-6d" x="142.089844"/>
      <use xlink:href="#DejaVuSans-Bold-6d" x="246.289062"/>
      <use xlink:href="#DejaVuSans-Bold-6f" x="350.488281"/>
      <use xlink:href="#DejaVuSans-Bold-6e" x="419.189453"/>
      <use xlink:href="#DejaVuSans-Bold-77" x="490.380859"/>
      <use xlink:href="#DejaVuSans-Bold-65" x="582.763672"/>
      <use xlink:href="#DejaVuSans-Bold-61" x="650.585938"/>
      <use xlink:href="#DejaVuSans-Bold-6c" x="718.066406"/>
      <use xlink:href="#DejaVuSans-Bold-74" x="752.34375"/>
      <use xlink:href="#DejaVuSans-Bold-68" x="800.146484"/>
      <use xlink:href="#DejaVuSans-Bold-5f" x="871.337891"/>
      <use xlink:href="#DejaVuSans-Bold-47" x="921.337891"/>
      <use xlink:href="#DejaVuSans-Bold-61" x="1003.417969"/>
      <use xlink:href="#DejaVuSans-Bold-6d" x="1070.898438"/>
      <use xlink:href="#DejaVuSans-Bold-65" x="1175.097656"/>
      <use xlink:href="#DejaVuSans-Bold-73" x="1242.919922"/>
     </g>
    </g>
   </g>
   <g id="text_20">
    <g clip-path="url(#pb999316450)">
     <!-- Netherlands -->
     <g transform="translate(224.031115 498.24029) scale(0.1 -0.1)">
      <use xlink:href="#DejaVuSans-Bold-4e"/>
      <use xlink:href="#DejaVuSans-Bold-65" x="83.691406"/>
      <use xlink:href="#DejaVuSans-Bold-74" x="151.513672"/>
      <use xlink:href="#DejaVuSans-Bold-68" x="199.316406"/>
      <use xlink:href="#DejaVuSans-Bold-65" x="270.507812"/>
      <use xlink:href="#DejaVuSans-Bold-72" x="338.330078"/>
      <use xlink:href="#DejaVuSans-Bold-6c" x="387.646484"/>
      <use xlink:href="#DejaVuSans-Bold-61" x="421.923828"/>
      <use xlink:href="#DejaVuSans-Bold-6e" x="489.404297"/>
      <use xlink:href="#DejaVuSans-Bold-64" x="560.595703"/>
      <use xlink:href="#DejaVuSans-Bold-73" x="632.177734"/>
     </g>
    </g>
   </g>
   <g id="text_21">
    <g clip-path="url(#pb999316450)">
     <!-- Driving_on_the_left_or_right -->
     <g transform="translate(153.811391 389.46512) scale(0.1 -0.1)">
      <defs>
       <path id="DejaVuSans-Bold-44" d="M 1791 3756 
L 1791 909 
L 2222 909 
Q 2959 909 3348 1275 
Q 3738 1641 3738 2338 
Q 3738 3031 3350 3393 
Q 2963 3756 2222 3756 
L 1791 3756 
z
M 588 4666 
L 1856 4666 
Q 2919 4666 3439 4514 
Q 3959 4363 4331 4000 
Q 4659 3684 4818 3271 
Q 4978 2859 4978 2338 
Q 4978 1809 4818 1395 
Q 4659 981 4331 666 
Q 3956 303 3431 151 
Q 2906 0 1856 0 
L 588 0 
L 588 4666 
z
" transform="scale(0.015625)"/>
       <path id="DejaVuSans-Bold-76" d="M 97 3500 
L 1216 3500 
L 2088 1081 
L 2956 3500 
L 4078 3500 
L 2700 0 
L 1472 0 
L 97 3500 
z
" transform="scale(0.015625)"/>
      </defs>
      <use xlink:href="#DejaVuSans-Bold-44"/>
      <use xlink:href="#DejaVuSans-Bold-72" x="83.007812"/>
      <use xlink:href="#DejaVuSans-Bold-69" x="132.324219"/>
      <use xlink:href="#DejaVuSans-Bold-76" x="166.601562"/>
      <use xlink:href="#DejaVuSans-Bold-69" x="231.787109"/>
      <use xlink:href="#DejaVuSans-Bold-6e" x="266.064453"/>
      <use xlink:href="#DejaVuSans-Bold-67" x="337.255859"/>
      <use xlink:href="#DejaVuSans-Bold-5f" x="408.837891"/>
      <use xlink:href="#DejaVuSans-Bold-6f" x="458.837891"/>
      <use xlink:href="#DejaVuSans-Bold-6e" x="527.539062"/>
      <use xlink:href="#DejaVuSans-Bold-5f" x="598.730469"/>
      <use xlink:href="#DejaVuSans-Bold-74" x="648.730469"/>
      <use xlink:href="#DejaVuSans-Bold-68" x="696.533203"/>
      <use xlink:href="#DejaVuSans-Bold-65" x="767.724609"/>
      <use xlink:href="#DejaVuSans-Bold-5f" x="835.546875"/>
      <use xlink:href="#DejaVuSans-Bold-6c" x="885.546875"/>
      <use xlink:href="#DejaVuSans-Bold-65" x="919.824219"/>
      <use xlink:href="#DejaVuSans-Bold-66" x="987.646484"/>
      <use xlink:href="#DejaVuSans-Bold-74" x="1031.152344"/>
      <use xlink:href="#DejaVuSans-Bold-5f" x="1078.955078"/>
      <use xlink:href="#DejaVuSans-Bold-6f" x="1128.955078"/>
      <use xlink:href="#DejaVuSans-Bold-72" x="1197.65625"/>
      <use xlink:href="#DejaVuSans-Bold-5f" x="1246.972656"/>
      <use xlink:href="#DejaVuSans-Bold-72" x="1296.972656"/>
      <use xlink:href="#DejaVuSans-Bold-69" x="1346.289062"/>
      <use xlink:href="#DejaVuSans-Bold-67" x="1380.566406"/>
      <use xlink:href="#DejaVuSans-Bold-68" x="1452.148438"/>
      <use xlink:href="#DejaVuSans-Bold-74" x="1523.339844"/>
     </g>
    </g>
   </g>
   <g id="text_22">
    <g clip-path="url(#pb999316450)">
     <!-- Edinburgh -->
     <g transform="translate(143.847122 133.207112) scale(0.1 -0.1)">
      <use xlink:href="#DejaVuSans-Bold-45"/>
      <use xlink:href="#DejaVuSans-Bold-64" x="68.310547"/>
      <use xlink:href="#DejaVuSans-Bold-69" x="139.892578"/>
      <use xlink:href="#DejaVuSans-Bold-6e" x="174.169922"/>
      <use xlink:href="#DejaVuSans-Bold-62" x="245.361328"/>
      <use xlink:href="#DejaVuSans-Bold-75" x="316.943359"/>
      <use xlink:href="#DejaVuSans-Bold-72" x="388.134766"/>
      <use xlink:href="#DejaVuSans-Bold-67" x="437.451172"/>
      <use xlink:href="#DejaVuSans-Bold-68" x="509.033203"/>
     </g>
    </g>
   </g>
   <g id="text_23">
    <g clip-path="url(#pb999316450)">
     <!-- Argentina -->
     <g transform="translate(317.373526 56.995813) scale(0.1 -0.1)">
      <defs>
       <path id="DejaVuSans-Bold-41" d="M 3419 850 
L 1538 850 
L 1241 0 
L 31 0 
L 1759 4666 
L 3194 4666 
L 4922 0 
L 3713 0 
L 3419 850 
z
M 1838 1716 
L 3116 1716 
L 2478 3572 
L 1838 1716 
z
" transform="scale(0.015625)"/>
      </defs>
      <use xlink:href="#DejaVuSans-Bold-41"/>
      <use xlink:href="#DejaVuSans-Bold-72" x="77.392578"/>
      <use xlink:href="#DejaVuSans-Bold-67" x="126.708984"/>
      <use xlink:href="#DejaVuSans-Bold-65" x="198.291016"/>
      <use xlink:href="#DejaVuSans-Bold-6e" x="266.113281"/>
      <use xlink:href="#DejaVuSans-Bold-74" x="337.304688"/>
      <use xlink:href="#DejaVuSans-Bold-69" x="385.107422"/>
      <use xlink:href="#DejaVuSans-Bold-6e" x="419.384766"/>
      <use xlink:href="#DejaVuSans-Bold-61" x="490.576172"/>
     </g>
    </g>
   </g>
   <g id="text_24">
    <g clip-path="url(#pb999316450)">
     <!-- Australia -->
     <g transform="translate(75.710781 196.836144) scale(0.1 -0.1)">
      <use xlink:href="#DejaVuSans-Bold-41"/>
      <use xlink:href="#DejaVuSans-Bold-75" x="77.392578"/>
      <use xlink:href="#DejaVuSans-Bold-73" x="148.583984"/>
      <use xlink:href="#DejaVuSans-Bold-74" x="208.105469"/>
      <use xlink:href="#DejaVuSans-Bold-72" x="255.908203"/>
      <use xlink:href="#DejaVuSans-Bold-61" x="305.224609"/>
      <use xlink:href="#DejaVuSans-Bold-6c" x="372.705078"/>
      <use xlink:href="#DejaVuSans-Bold-69" x="406.982422"/>
      <use xlink:href="#DejaVuSans-Bold-61" x="441.259766"/>
     </g>
    </g>
   </g>
   <g id="text_25">
    <g clip-path="url(#pb999316450)">
     <!-- List_of_Prime_Ministers_of_the_United_Kingdom -->
     <g transform="translate(258.768312 528.636841) scale(0.1 -0.1)">
      <defs>
       <path id="DejaVuSans-Bold-50" d="M 588 4666 
L 2584 4666 
Q 3475 4666 3951 4270 
Q 4428 3875 4428 3144 
Q 4428 2409 3951 2014 
Q 3475 1619 2584 1619 
L 1791 1619 
L 1791 0 
L 588 0 
L 588 4666 
z
M 1791 3794 
L 1791 2491 
L 2456 2491 
Q 2806 2491 2997 2661 
Q 3188 2831 3188 3144 
Q 3188 3456 2997 3625 
Q 2806 3794 2456 3794 
L 1791 3794 
z
" transform="scale(0.015625)"/>
      </defs>
      <use xlink:href="#DejaVuSans-Bold-4c"/>
      <use xlink:href="#DejaVuSans-Bold-69" x="63.720703"/>
      <use xlink:href="#DejaVuSans-Bold-73" x="97.998047"/>
      <use xlink:href="#DejaVuSans-Bold-74" x="157.519531"/>
      <use xlink:href="#DejaVuSans-Bold-5f" x="205.322266"/>
      <use xlink:href="#DejaVuSans-Bold-6f" x="255.322266"/>
      <use xlink:href="#DejaVuSans-Bold-66" x="324.023438"/>
      <use xlink:href="#DejaVuSans-Bold-5f" x="367.529297"/>
      <use xlink:href="#DejaVuSans-Bold-50" x="417.529297"/>
      <use xlink:href="#DejaVuSans-Bold-72" x="490.820312"/>
      <use xlink:href="#DejaVuSans-Bold-69" x="540.136719"/>
      <use xlink:href="#DejaVuSans-Bold-6d" x="574.414062"/>
      <use xlink:href="#DejaVuSans-Bold-65" x="678.613281"/>
      <use xlink:href="#DejaVuSans-Bold-5f" x="746.435547"/>
      <use xlink:href="#DejaVuSans-Bold-4d" x="796.435547"/>
      <use xlink:href="#DejaVuSans-Bold-69" x="895.947266"/>
      <use xlink:href="#DejaVuSans-Bold-6e" x="930.224609"/>
      <use xlink:href="#DejaVuSans-Bold-69" x="1001.416016"/>
      <use xlink:href="#DejaVuSans-Bold-73" x="1035.693359"/>
      <use xlink:href="#DejaVuSans-Bold-74" x="1095.214844"/>
      <use xlink:href="#DejaVuSans-Bold-65" x="1143.017578"/>
      <use xlink:href="#DejaVuSans-Bold-72" x="1210.839844"/>
      <use xlink:href="#DejaVuSans-Bold-73" x="1260.15625"/>
      <use xlink:href="#DejaVuSans-Bold-5f" x="1319.677734"/>
      <use xlink:href="#DejaVuSans-Bold-6f" x="1369.677734"/>
      <use xlink:href="#DejaVuSans-Bold-66" x="1438.378906"/>
      <use xlink:href="#DejaVuSans-Bold-5f" x="1481.884766"/>
      <use xlink:href="#DejaVuSans-Bold-74" x="1531.884766"/>
      <use xlink:href="#DejaVuSans-Bold-68" x="1579.6875"/>
      <use xlink:href="#DejaVuSans-Bold-65" x="1650.878906"/>
      <use xlink:href="#DejaVuSans-Bold-5f" x="1718.701172"/>
      <use xlink:href="#DejaVuSans-Bold-55" x="1768.701172"/>
      <use xlink:href="#DejaVuSans-Bold-6e" x="1849.902344"/>
      <use xlink:href="#DejaVuSans-Bold-69" x="1921.09375"/>
      <use xlink:href="#DejaVuSans-Bold-74" x="1955.371094"/>
      <use xlink:href="#DejaVuSans-Bold-65" x="2003.173828"/>
      <use xlink:href="#DejaVuSans-Bold-64" x="2070.996094"/>
      <use xlink:href="#DejaVuSans-Bold-5f" x="2142.578125"/>
      <use xlink:href="#DejaVuSans-Bold-4b" x="2192.578125"/>
      <use xlink:href="#DejaVuSans-Bold-69" x="2270.068359"/>
      <use xlink:href="#DejaVuSans-Bold-6e" x="2304.345703"/>
      <use xlink:href="#DejaVuSans-Bold-67" x="2375.537109"/>
      <use xlink:href="#DejaVuSans-Bold-64" x="2447.119141"/>
      <use xlink:href="#DejaVuSans-Bold-6f" x="2518.701172"/>
      <use xlink:href="#DejaVuSans-Bold-6d" x="2587.402344"/>
     </g>
    </g>
   </g>
   <g id="text_26">
    <g clip-path="url(#pb999316450)">
     <!-- Israel -->
     <g transform="translate(598.789611 357.957178) scale(0.1 -0.1)">
      <use xlink:href="#DejaVuSans-Bold-49"/>
      <use xlink:href="#DejaVuSans-Bold-73" x="37.207031"/>
      <use xlink:href="#DejaVuSans-Bold-72" x="96.728516"/>
      <use xlink:href="#DejaVuSans-Bold-61" x="146.044922"/>
      <use xlink:href="#DejaVuSans-Bold-65" x="213.525391"/>
      <use xlink:href="#DejaVuSans-Bold-6c" x="281.347656"/>
     </g>
    </g>
   </g>
   <g id="text_27">
    <g clip-path="url(#pb999316450)">
     <!-- Norway -->
     <g transform="translate(712.831793 408.664667) scale(0.1 -0.1)">
      <use xlink:href="#DejaVuSans-Bold-4e"/>
      <use xlink:href="#DejaVuSans-Bold-6f" x="83.691406"/>
      <use xlink:href="#DejaVuSans-Bold-72" x="152.392578"/>
      <use xlink:href="#DejaVuSans-Bold-77" x="201.708984"/>
      <use xlink:href="#DejaVuSans-Bold-61" x="294.091797"/>
      <use xlink:href="#DejaVuSans-Bold-79" x="358.447266"/>
     </g>
    </g>
   </g>
   <g id="text_28">
    <g clip-path="url(#pb999316450)">
     <!-- Sweden -->
     <g transform="translate(647.506907 208.870731) scale(0.1 -0.1)">
      <use xlink:href="#DejaVuSans-Bold-53"/>
      <use xlink:href="#DejaVuSans-Bold-77" x="72.021484"/>
      <use xlink:href="#DejaVuSans-Bold-65" x="164.404297"/>
      <use xlink:href="#DejaVuSans-Bold-64" x="232.226562"/>
      <use xlink:href="#DejaVuSans-Bold-65" x="303.808594"/>
      <use xlink:href="#DejaVuSans-Bold-6e" x="371.630859"/>
     </g>
    </g>
   </g>
   <g id="text_29">
    <g clip-path="url(#pb999316450)">
     <!-- New_Zealand -->
     <g transform="translate(181.82645 221.005296) scale(0.1 -0.1)">
      <defs>
       <path id="DejaVuSans-Bold-5a" d="M 359 4666 
L 4281 4666 
L 4281 3938 
L 1778 909 
L 4353 909 
L 4353 0 
L 288 0 
L 288 728 
L 2791 3756 
L 359 3756 
L 359 4666 
z
" transform="scale(0.015625)"/>
      </defs>
      <use xlink:href="#DejaVuSans-Bold-4e"/>
      <use xlink:href="#DejaVuSans-Bold-65" x="83.691406"/>
      <use xlink:href="#DejaVuSans-Bold-77" x="151.513672"/>
      <use xlink:href="#DejaVuSans-Bold-5f" x="243.896484"/>
      <use xlink:href="#DejaVuSans-Bold-5a" x="293.896484"/>
      <use xlink:href="#DejaVuSans-Bold-65" x="366.40625"/>
      <use xlink:href="#DejaVuSans-Bold-61" x="434.228516"/>
      <use xlink:href="#DejaVuSans-Bold-6c" x="501.708984"/>
      <use xlink:href="#DejaVuSans-Bold-61" x="535.986328"/>
      <use xlink:href="#DejaVuSans-Bold-6e" x="603.466797"/>
      <use xlink:href="#DejaVuSans-Bold-64" x="674.658203"/>
     </g>
    </g>
   </g>
   <g id="text_30">
    <g clip-path="url(#pb999316450)">
     <!-- Republic_of_Ireland -->
     <g transform="translate(669.569987 148.165762) scale(0.1 -0.1)">
      <defs>
       <path id="DejaVuSans-Bold-52" d="M 2297 2597 
Q 2675 2597 2839 2737 
Q 3003 2878 3003 3200 
Q 3003 3519 2839 3656 
Q 2675 3794 2297 3794 
L 1791 3794 
L 1791 2597 
L 2297 2597 
z
M 1791 1766 
L 1791 0 
L 588 0 
L 588 4666 
L 2425 4666 
Q 3347 4666 3776 4356 
Q 4206 4047 4206 3378 
Q 4206 2916 3982 2619 
Q 3759 2322 3309 2181 
Q 3556 2125 3751 1926 
Q 3947 1728 4147 1325 
L 4800 0 
L 3519 0 
L 2950 1159 
Q 2778 1509 2601 1637 
Q 2425 1766 2131 1766 
L 1791 1766 
z
" transform="scale(0.015625)"/>
      </defs>
      <use xlink:href="#DejaVuSans-Bold-52"/>
      <use xlink:href="#DejaVuSans-Bold-65" x="77.001953"/>
      <use xlink:href="#DejaVuSans-Bold-70" x="144.824219"/>
      <use xlink:href="#DejaVuSans-Bold-75" x="216.40625"/>
      <use xlink:href="#DejaVuSans-Bold-62" x="287.597656"/>
      <use xlink:href="#DejaVuSans-Bold-6c" x="359.179688"/>
      <use xlink:href="#DejaVuSans-Bold-69" x="393.457031"/>
      <use xlink:href="#DejaVuSans-Bold-63" x="427.734375"/>
      <use xlink:href="#DejaVuSans-Bold-5f" x="487.011719"/>
      <use xlink:href="#DejaVuSans-Bold-6f" x="537.011719"/>
      <use xlink:href="#DejaVuSans-Bold-66" x="605.712891"/>
      <use xlink:href="#DejaVuSans-Bold-5f" x="649.21875"/>
      <use xlink:href="#DejaVuSans-Bold-49" x="699.21875"/>
      <use xlink:href="#DejaVuSans-Bold-72" x="736.425781"/>
      <use xlink:href="#DejaVuSans-Bold-65" x="785.742188"/>
      <use xlink:href="#DejaVuSans-Bold-6c" x="853.564453"/>
      <use xlink:href="#DejaVuSans-Bold-61" x="887.841797"/>
      <use xlink:href="#DejaVuSans-Bold-6e" x="955.322266"/>
      <use xlink:href="#DejaVuSans-Bold-64" x="1026.513672"/>
     </g>
    </g>
   </g>
  </g>
 </g>
 <defs>
  <clipPath id="pb999316450">
   <rect x="0" y="0" width="864" height="576"/>
  </clipPath>
 </defs>
</svg>
